<?xml version="1.0" standalone="no"?><svg xmlns="http://www.w3.org/2000/svg" viewBox="0 0 1440 320"><path fill="#04051f" fill-opacity="1" d="M0,160L40,181.3C80,203,160,245,240,250.7C320,256,400,224,480,186.7C560,149,640,107,720,122.7C800,139,880,213,960,229.3C1040,245,1120,203,1200,170.7C1280,139,1360,117,1400,106.7L1440,96L1440,320L1400,320C1360,320,1280,320,1200,320C1120,320,1040,320,960,320C880,320,800,320,720,320C640,320,560,320,480,320C400,320,320,320,240,320C160,320,80,320,40,320L0,320Z"></path></svg>